<svg version="1.0" xmlns="http://www.w3.org/2000/svg"
 width="512.000000pt" height="512.000000pt" viewBox="0 0 512.000000 512.000000"
 preserveAspectRatio="xMidYMid meet">

<g transform="translate(0.000000,512.000000) scale(0.100000,-0.100000)"
fill="currentColor" stroke="none">
<path d="M4070 4870 c-25 -5 -77 -25 -116 -45 -84 -41 -168 -125 -209 -209
l-27 -54 -456 -5 c-490 -5 -514 -7 -677 -62 -104 -34 -254 -113 -335 -174 -88
-66 -225 -211 -281 -296 -149 -227 -199 -413 -199 -742 l0 -195 -37 6 c-93 14
-294 18 -374 7 -176 -25 -357 -93 -509 -192 -91 -59 -267 -238 -329 -334 -86
-131 -138 -256 -177 -420 -14 -58 -17 -148 -21 -532 l-5 -461 -54 -27 c-75
-37 -164 -122 -202 -193 -60 -113 -75 -220 -47 -341 55 -234 293 -392 528
-353 327 55 501 420 334 705 -35 59 -142 157 -197 181 -25 11 -46 21 -48 22
-2 1 4 33 13 71 56 225 220 430 430 536 51 25 176 67 201 67 12 0 14 -79 14
-502 0 -487 1 -504 20 -536 12 -19 38 -41 63 -52 41 -19 79 -20 1187 -20 1108
0 1146 1 1187 20 25 11 51 33 63 52 19 32 20 49 20 536 0 423 2 502 14 502 25
0 150 -42 201 -68 197 -99 347 -274 413 -482 39 -122 39 -122 -14 -144 -56
-23 -165 -123 -201 -183 -108 -184 -76 -421 76 -573 182 -182 479 -183 659 -1
153 153 184 369 80 563 -38 71 -127 156 -202 193 l-54 27 -5 461 c-4 384 -7
474 -21 532 -60 254 -156 428 -335 606 -113 112 -188 167 -316 229 -184 90
-353 125 -561 117 l-132 -4 -200 201 -201 201 13 75 c55 304 267 546 556 638
120 37 117 38 141 -10 61 -123 164 -211 291 -249 55 -17 88 -21 161 -17 81 3
102 8 170 41 238 113 339 387 229 620 -78 164 -222 262 -402 272 -41 2 -95 0
-120 -5z m165 -309 c170 -78 115 -321 -72 -321 -58 0 -105 26 -141 80 -20 29
-23 45 -20 95 5 74 33 119 92 146 52 23 90 23 141 0z m-1213 -368 c-98 -112
-174 -236 -222 -365 -51 -137 -83 -363 -61 -429 7 -23 69 -92 190 -213 l180
-180 -74 -40 c-181 -99 -356 -265 -446 -423 -13 -24 -26 -43 -29 -43 -3 0 -16
19 -29 43 -82 145 -276 333 -424 412 l-37 20 0 243 c0 183 4 262 16 320 56
271 229 499 474 622 137 69 257 96 433 99 l89 1 -60 -67z m-1274 -1413 c313
-89 547 -325 633 -636 18 -65 22 -115 26 -276 l5 -198 -410 0 -410 0 -4 183
c-4 199 -10 226 -66 266 -42 29 -94 35 -207 21 -239 -28 -445 -122 -629 -284
l-69 -61 6 130 c3 72 13 159 22 194 86 353 366 616 723 681 82 15 298 4 380
-20z m2090 0 c319 -91 558 -339 637 -661 9 -35 19 -122 22 -194 l6 -130 -54
49 c-185 167 -404 267 -644 296 -113 14 -165 8 -207 -21 -56 -40 -62 -67 -66
-266 l-4 -183 -410 0 -410 0 5 198 c4 161 8 211 26 276 94 338 372 595 713
655 88 16 302 6 386 -19z m-308 -1585 l0 -175 -970 0 -970 0 0 175 0 175 970
0 970 0 0 -175z m-2963 -341 c47 -35 66 -70 71 -128 14 -167 -184 -249 -295
-123 -71 81 -48 207 47 259 46 25 138 21 177 -8z m4163 7 c97 -51 118 -179 43
-261 -55 -61 -126 -75 -200 -39 -124 60 -123 249 2 305 43 19 115 17 155 -5z"/>
</g>
  <style>
  svg {
    color: #000; /* Modo claro */
  }
  @media (prefers-color-scheme: dark) {
    svg {
      color: #fff; /* Modo oscuro */
    }
  }
</style>
</svg>
